<mxfile host="app.diagrams.net" modified="2024-01-04T03:19:59.402Z" agent="Mozilla/5.0 (Windows NT 10.0; Win64; x64) AppleWebKit/537.36 (KHTML, like Gecko) Chrome/120.0.0.0 Safari/537.36" etag="HVfXc5FpsErtTlcB2qrI" version="22.1.16" type="device">
  <diagram id="C5RBs43oDa-KdzZeNtuy" name="Page-1">
    <mxGraphModel dx="3639" dy="1810" grid="1" gridSize="10" guides="1" tooltips="1" connect="1" arrows="1" fold="1" page="1" pageScale="1" pageWidth="827" pageHeight="1169" math="0" shadow="0">
      <root>
        <mxCell id="WIyWlLk6GJQsqaUBKTNV-0" />
        <mxCell id="WIyWlLk6GJQsqaUBKTNV-1" parent="WIyWlLk6GJQsqaUBKTNV-0" />
        <mxCell id="WIyWlLk6GJQsqaUBKTNV-2" value="" style="rounded=0;html=1;jettySize=auto;orthogonalLoop=1;fontSize=11;endArrow=block;endFill=0;endSize=8;strokeWidth=1;shadow=0;labelBackgroundColor=none;edgeStyle=orthogonalEdgeStyle;" parent="WIyWlLk6GJQsqaUBKTNV-1" source="WIyWlLk6GJQsqaUBKTNV-3" target="WIyWlLk6GJQsqaUBKTNV-6" edge="1">
          <mxGeometry relative="1" as="geometry" />
        </mxCell>
        <mxCell id="WIyWlLk6GJQsqaUBKTNV-3" value="실행" style="rounded=1;whiteSpace=wrap;html=1;fontSize=12;glass=0;strokeWidth=1;shadow=0;" parent="WIyWlLk6GJQsqaUBKTNV-1" vertex="1">
          <mxGeometry x="-440" y="240" width="120" height="40" as="geometry" />
        </mxCell>
        <mxCell id="8InrCBRszf_Y2FXRs5-k-5" style="edgeStyle=orthogonalEdgeStyle;rounded=0;orthogonalLoop=1;jettySize=auto;html=1;exitX=0.5;exitY=1;exitDx=0;exitDy=0;entryX=0.5;entryY=0;entryDx=0;entryDy=0;" parent="WIyWlLk6GJQsqaUBKTNV-1" source="WIyWlLk6GJQsqaUBKTNV-6" target="8InrCBRszf_Y2FXRs5-k-1" edge="1">
          <mxGeometry relative="1" as="geometry">
            <Array as="points">
              <mxPoint x="-380" y="440" />
              <mxPoint x="-380" y="440" />
            </Array>
          </mxGeometry>
        </mxCell>
        <mxCell id="xwYpTstkqBrpEJgK2ljI-25" style="edgeStyle=orthogonalEdgeStyle;rounded=0;orthogonalLoop=1;jettySize=auto;html=1;entryX=0.5;entryY=0;entryDx=0;entryDy=0;" parent="WIyWlLk6GJQsqaUBKTNV-1" source="WIyWlLk6GJQsqaUBKTNV-6" target="xwYpTstkqBrpEJgK2ljI-8" edge="1">
          <mxGeometry relative="1" as="geometry" />
        </mxCell>
        <mxCell id="xwYpTstkqBrpEJgK2ljI-52" style="edgeStyle=orthogonalEdgeStyle;rounded=0;orthogonalLoop=1;jettySize=auto;html=1;exitX=0;exitY=0.5;exitDx=0;exitDy=0;entryX=0.5;entryY=0;entryDx=0;entryDy=0;" parent="WIyWlLk6GJQsqaUBKTNV-1" source="WIyWlLk6GJQsqaUBKTNV-6" target="xwYpTstkqBrpEJgK2ljI-29" edge="1">
          <mxGeometry relative="1" as="geometry" />
        </mxCell>
        <mxCell id="PC392WLs6Io8LUc0K1QD-35" style="edgeStyle=orthogonalEdgeStyle;rounded=0;orthogonalLoop=1;jettySize=auto;html=1;entryX=0.5;entryY=0;entryDx=0;entryDy=0;" edge="1" parent="WIyWlLk6GJQsqaUBKTNV-1" source="WIyWlLk6GJQsqaUBKTNV-6" target="PC392WLs6Io8LUc0K1QD-32">
          <mxGeometry relative="1" as="geometry" />
        </mxCell>
        <mxCell id="WIyWlLk6GJQsqaUBKTNV-6" value="웰컴 블록" style="rhombus;whiteSpace=wrap;html=1;shadow=0;fontFamily=Helvetica;fontSize=12;align=center;strokeWidth=1;spacing=6;spacingTop=-4;" parent="WIyWlLk6GJQsqaUBKTNV-1" vertex="1">
          <mxGeometry x="-430" y="339" width="100" height="80" as="geometry" />
        </mxCell>
        <mxCell id="8InrCBRszf_Y2FXRs5-k-10" style="edgeStyle=orthogonalEdgeStyle;rounded=0;orthogonalLoop=1;jettySize=auto;html=1;exitX=0.5;exitY=1;exitDx=0;exitDy=0;entryX=0.5;entryY=0;entryDx=0;entryDy=0;" parent="WIyWlLk6GJQsqaUBKTNV-1" source="8InrCBRszf_Y2FXRs5-k-1" target="8InrCBRszf_Y2FXRs5-k-9" edge="1">
          <mxGeometry relative="1" as="geometry" />
        </mxCell>
        <mxCell id="8InrCBRszf_Y2FXRs5-k-1" value="부동산 찾기" style="rounded=0;whiteSpace=wrap;html=1;" parent="WIyWlLk6GJQsqaUBKTNV-1" vertex="1">
          <mxGeometry x="-440" y="470" width="120" height="60" as="geometry" />
        </mxCell>
        <mxCell id="8InrCBRszf_Y2FXRs5-k-12" style="edgeStyle=orthogonalEdgeStyle;rounded=0;orthogonalLoop=1;jettySize=auto;html=1;exitX=0.5;exitY=1;exitDx=0;exitDy=0;entryX=0.5;entryY=0;entryDx=0;entryDy=0;" parent="WIyWlLk6GJQsqaUBKTNV-1" source="8InrCBRszf_Y2FXRs5-k-9" target="8InrCBRszf_Y2FXRs5-k-11" edge="1">
          <mxGeometry relative="1" as="geometry" />
        </mxCell>
        <mxCell id="8InrCBRszf_Y2FXRs5-k-14" style="edgeStyle=orthogonalEdgeStyle;rounded=0;orthogonalLoop=1;jettySize=auto;html=1;exitX=0.5;exitY=1;exitDx=0;exitDy=0;entryX=0.5;entryY=0;entryDx=0;entryDy=0;" parent="WIyWlLk6GJQsqaUBKTNV-1" source="8InrCBRszf_Y2FXRs5-k-9" target="8InrCBRszf_Y2FXRs5-k-13" edge="1">
          <mxGeometry relative="1" as="geometry" />
        </mxCell>
        <mxCell id="8InrCBRszf_Y2FXRs5-k-9" value="구/동 입력" style="rounded=0;whiteSpace=wrap;html=1;" parent="WIyWlLk6GJQsqaUBKTNV-1" vertex="1">
          <mxGeometry x="-440" y="580" width="120" height="60" as="geometry" />
        </mxCell>
        <mxCell id="8InrCBRszf_Y2FXRs5-k-16" style="edgeStyle=orthogonalEdgeStyle;rounded=0;orthogonalLoop=1;jettySize=auto;html=1;exitX=0.5;exitY=1;exitDx=0;exitDy=0;entryX=0.5;entryY=0;entryDx=0;entryDy=0;" parent="WIyWlLk6GJQsqaUBKTNV-1" source="8InrCBRszf_Y2FXRs5-k-11" target="8InrCBRszf_Y2FXRs5-k-15" edge="1">
          <mxGeometry relative="1" as="geometry" />
        </mxCell>
        <mxCell id="8InrCBRszf_Y2FXRs5-k-11" value="구 입력시&amp;nbsp;&lt;br&gt;구에서 랜덤으로&lt;br&gt;3개 출력" style="rounded=0;whiteSpace=wrap;html=1;" parent="WIyWlLk6GJQsqaUBKTNV-1" vertex="1">
          <mxGeometry x="-560" y="690" width="120" height="60" as="geometry" />
        </mxCell>
        <mxCell id="8InrCBRszf_Y2FXRs5-k-17" style="edgeStyle=orthogonalEdgeStyle;rounded=0;orthogonalLoop=1;jettySize=auto;html=1;exitX=0.5;exitY=1;exitDx=0;exitDy=0;" parent="WIyWlLk6GJQsqaUBKTNV-1" source="8InrCBRszf_Y2FXRs5-k-13" edge="1">
          <mxGeometry relative="1" as="geometry">
            <mxPoint x="-380" y="820" as="targetPoint" />
          </mxGeometry>
        </mxCell>
        <mxCell id="8InrCBRszf_Y2FXRs5-k-13" value="동 입력시&amp;nbsp;&lt;br&gt;동에서 랜덤으로&lt;br&gt;3개 출력" style="rounded=0;whiteSpace=wrap;html=1;" parent="WIyWlLk6GJQsqaUBKTNV-1" vertex="1">
          <mxGeometry x="-320" y="690" width="120" height="60" as="geometry" />
        </mxCell>
        <mxCell id="xwYpTstkqBrpEJgK2ljI-54" style="edgeStyle=orthogonalEdgeStyle;rounded=0;orthogonalLoop=1;jettySize=auto;html=1;exitX=0.5;exitY=1;exitDx=0;exitDy=0;entryX=1;entryY=1;entryDx=0;entryDy=0;" parent="WIyWlLk6GJQsqaUBKTNV-1" source="8InrCBRszf_Y2FXRs5-k-15" target="WIyWlLk6GJQsqaUBKTNV-6" edge="1">
          <mxGeometry relative="1" as="geometry">
            <Array as="points">
              <mxPoint x="-380" y="900" />
              <mxPoint x="-170" y="900" />
              <mxPoint x="-170" y="399" />
            </Array>
          </mxGeometry>
        </mxCell>
        <mxCell id="8InrCBRszf_Y2FXRs5-k-15" value="탈출 블록" style="rounded=0;whiteSpace=wrap;html=1;" parent="WIyWlLk6GJQsqaUBKTNV-1" vertex="1">
          <mxGeometry x="-440" y="820" width="120" height="60" as="geometry" />
        </mxCell>
        <mxCell id="xwYpTstkqBrpEJgK2ljI-5" style="edgeStyle=orthogonalEdgeStyle;rounded=0;orthogonalLoop=1;jettySize=auto;html=1;" parent="WIyWlLk6GJQsqaUBKTNV-1" source="xwYpTstkqBrpEJgK2ljI-8" target="xwYpTstkqBrpEJgK2ljI-12" edge="1">
          <mxGeometry relative="1" as="geometry" />
        </mxCell>
        <mxCell id="xwYpTstkqBrpEJgK2ljI-6" style="edgeStyle=orthogonalEdgeStyle;rounded=0;orthogonalLoop=1;jettySize=auto;html=1;entryX=0.5;entryY=0;entryDx=0;entryDy=0;" parent="WIyWlLk6GJQsqaUBKTNV-1" source="xwYpTstkqBrpEJgK2ljI-8" target="xwYpTstkqBrpEJgK2ljI-10" edge="1">
          <mxGeometry relative="1" as="geometry" />
        </mxCell>
        <mxCell id="xwYpTstkqBrpEJgK2ljI-7" style="edgeStyle=orthogonalEdgeStyle;rounded=0;orthogonalLoop=1;jettySize=auto;html=1;entryX=0.5;entryY=0;entryDx=0;entryDy=0;" parent="WIyWlLk6GJQsqaUBKTNV-1" source="xwYpTstkqBrpEJgK2ljI-8" target="xwYpTstkqBrpEJgK2ljI-14" edge="1">
          <mxGeometry relative="1" as="geometry" />
        </mxCell>
        <mxCell id="xwYpTstkqBrpEJgK2ljI-8" value="서울 전/월세 조회" style="rounded=1;whiteSpace=wrap;html=1;fontSize=12;glass=0;strokeWidth=1;shadow=0;" parent="WIyWlLk6GJQsqaUBKTNV-1" vertex="1">
          <mxGeometry y="470" width="120" height="40" as="geometry" />
        </mxCell>
        <mxCell id="xwYpTstkqBrpEJgK2ljI-9" style="edgeStyle=orthogonalEdgeStyle;rounded=0;orthogonalLoop=1;jettySize=auto;html=1;exitX=0.5;exitY=1;exitDx=0;exitDy=0;entryX=0.5;entryY=0;entryDx=0;entryDy=0;" parent="WIyWlLk6GJQsqaUBKTNV-1" source="xwYpTstkqBrpEJgK2ljI-10" target="xwYpTstkqBrpEJgK2ljI-16" edge="1">
          <mxGeometry relative="1" as="geometry" />
        </mxCell>
        <mxCell id="xwYpTstkqBrpEJgK2ljI-10" value="지역별" style="rounded=1;whiteSpace=wrap;html=1;fontSize=12;glass=0;strokeWidth=1;shadow=0;" parent="WIyWlLk6GJQsqaUBKTNV-1" vertex="1">
          <mxGeometry x="-150" y="550" width="120" height="40" as="geometry" />
        </mxCell>
        <mxCell id="xwYpTstkqBrpEJgK2ljI-11" style="edgeStyle=orthogonalEdgeStyle;rounded=0;orthogonalLoop=1;jettySize=auto;html=1;entryX=0.5;entryY=0;entryDx=0;entryDy=0;" parent="WIyWlLk6GJQsqaUBKTNV-1" source="xwYpTstkqBrpEJgK2ljI-12" target="xwYpTstkqBrpEJgK2ljI-18" edge="1">
          <mxGeometry relative="1" as="geometry" />
        </mxCell>
        <mxCell id="xwYpTstkqBrpEJgK2ljI-12" value="가격별" style="rounded=1;whiteSpace=wrap;html=1;fontSize=12;glass=0;strokeWidth=1;shadow=0;" parent="WIyWlLk6GJQsqaUBKTNV-1" vertex="1">
          <mxGeometry y="550" width="120" height="40" as="geometry" />
        </mxCell>
        <mxCell id="xwYpTstkqBrpEJgK2ljI-13" style="edgeStyle=orthogonalEdgeStyle;rounded=0;orthogonalLoop=1;jettySize=auto;html=1;entryX=0.5;entryY=0;entryDx=0;entryDy=0;" parent="WIyWlLk6GJQsqaUBKTNV-1" source="xwYpTstkqBrpEJgK2ljI-14" target="xwYpTstkqBrpEJgK2ljI-20" edge="1">
          <mxGeometry relative="1" as="geometry" />
        </mxCell>
        <mxCell id="xwYpTstkqBrpEJgK2ljI-14" value="조건별" style="rounded=1;whiteSpace=wrap;html=1;fontSize=12;glass=0;strokeWidth=1;shadow=0;" parent="WIyWlLk6GJQsqaUBKTNV-1" vertex="1">
          <mxGeometry x="150" y="550" width="120" height="40" as="geometry" />
        </mxCell>
        <mxCell id="xwYpTstkqBrpEJgK2ljI-24" style="edgeStyle=orthogonalEdgeStyle;rounded=0;orthogonalLoop=1;jettySize=auto;html=1;exitX=0.5;exitY=1;exitDx=0;exitDy=0;entryX=1;entryY=0.5;entryDx=0;entryDy=0;" parent="WIyWlLk6GJQsqaUBKTNV-1" source="xwYpTstkqBrpEJgK2ljI-16" target="8InrCBRszf_Y2FXRs5-k-15" edge="1">
          <mxGeometry relative="1" as="geometry">
            <Array as="points">
              <mxPoint x="-90" y="710" />
              <mxPoint x="60" y="710" />
              <mxPoint x="60" y="850" />
            </Array>
          </mxGeometry>
        </mxCell>
        <mxCell id="xwYpTstkqBrpEJgK2ljI-16" value="지역명 입력 받아&lt;br&gt;랜덤 출력" style="rounded=1;whiteSpace=wrap;html=1;fontSize=12;glass=0;strokeWidth=1;shadow=0;" parent="WIyWlLk6GJQsqaUBKTNV-1" vertex="1">
          <mxGeometry x="-150" y="630" width="120" height="40" as="geometry" />
        </mxCell>
        <mxCell id="xwYpTstkqBrpEJgK2ljI-23" style="edgeStyle=orthogonalEdgeStyle;rounded=0;orthogonalLoop=1;jettySize=auto;html=1;exitX=0.5;exitY=1;exitDx=0;exitDy=0;" parent="WIyWlLk6GJQsqaUBKTNV-1" source="xwYpTstkqBrpEJgK2ljI-18" edge="1">
          <mxGeometry relative="1" as="geometry">
            <mxPoint x="-320" y="850" as="targetPoint" />
            <Array as="points">
              <mxPoint x="60" y="850" />
            </Array>
          </mxGeometry>
        </mxCell>
        <mxCell id="xwYpTstkqBrpEJgK2ljI-18" value="가격대 선택 받아&lt;br&gt;랜덤 출력" style="rounded=1;whiteSpace=wrap;html=1;fontSize=12;glass=0;strokeWidth=1;shadow=0;" parent="WIyWlLk6GJQsqaUBKTNV-1" vertex="1">
          <mxGeometry y="630" width="120" height="40" as="geometry" />
        </mxCell>
        <mxCell id="xwYpTstkqBrpEJgK2ljI-19" style="edgeStyle=orthogonalEdgeStyle;rounded=0;orthogonalLoop=1;jettySize=auto;html=1;entryX=1;entryY=0.5;entryDx=0;entryDy=0;" parent="WIyWlLk6GJQsqaUBKTNV-1" source="xwYpTstkqBrpEJgK2ljI-20" target="8InrCBRszf_Y2FXRs5-k-15" edge="1">
          <mxGeometry relative="1" as="geometry">
            <mxPoint x="60" y="750" as="targetPoint" />
            <Array as="points">
              <mxPoint x="210" y="710" />
              <mxPoint x="60" y="710" />
              <mxPoint x="60" y="850" />
            </Array>
          </mxGeometry>
        </mxCell>
        <mxCell id="xwYpTstkqBrpEJgK2ljI-20" value="조건(역세권/반려동물 가능 여부 등) 선택 받아&lt;br&gt;랜덤 출력" style="rounded=1;whiteSpace=wrap;html=1;fontSize=12;glass=0;strokeWidth=1;shadow=0;" parent="WIyWlLk6GJQsqaUBKTNV-1" vertex="1">
          <mxGeometry x="145" y="630" width="130" height="50" as="geometry" />
        </mxCell>
        <mxCell id="xwYpTstkqBrpEJgK2ljI-28" value="" style="edgeStyle=orthogonalEdgeStyle;rounded=0;orthogonalLoop=1;jettySize=auto;html=1;" parent="WIyWlLk6GJQsqaUBKTNV-1" source="xwYpTstkqBrpEJgK2ljI-29" target="xwYpTstkqBrpEJgK2ljI-32" edge="1">
          <mxGeometry relative="1" as="geometry" />
        </mxCell>
        <mxCell id="xwYpTstkqBrpEJgK2ljI-29" value="퀴즈 풀기" style="rounded=1;whiteSpace=wrap;html=1;fontSize=12;glass=0;strokeWidth=1;shadow=0;" parent="WIyWlLk6GJQsqaUBKTNV-1" vertex="1">
          <mxGeometry x="-860.08" y="470" width="120" height="40" as="geometry" />
        </mxCell>
        <mxCell id="xwYpTstkqBrpEJgK2ljI-30" style="edgeStyle=orthogonalEdgeStyle;rounded=0;orthogonalLoop=1;jettySize=auto;html=1;" parent="WIyWlLk6GJQsqaUBKTNV-1" source="xwYpTstkqBrpEJgK2ljI-32" edge="1">
          <mxGeometry relative="1" as="geometry">
            <mxPoint x="-800.08" y="650" as="targetPoint" />
          </mxGeometry>
        </mxCell>
        <mxCell id="xwYpTstkqBrpEJgK2ljI-31" value="" style="edgeStyle=orthogonalEdgeStyle;rounded=0;orthogonalLoop=1;jettySize=auto;html=1;" parent="WIyWlLk6GJQsqaUBKTNV-1" source="xwYpTstkqBrpEJgK2ljI-32" target="xwYpTstkqBrpEJgK2ljI-35" edge="1">
          <mxGeometry relative="1" as="geometry" />
        </mxCell>
        <mxCell id="xwYpTstkqBrpEJgK2ljI-32" value="난이도 선택" style="rounded=1;whiteSpace=wrap;html=1;fontSize=12;glass=0;strokeWidth=1;shadow=0;" parent="WIyWlLk6GJQsqaUBKTNV-1" vertex="1">
          <mxGeometry x="-860.08" y="560" width="120" height="40" as="geometry" />
        </mxCell>
        <mxCell id="xwYpTstkqBrpEJgK2ljI-34" value="" style="edgeStyle=orthogonalEdgeStyle;rounded=0;orthogonalLoop=1;jettySize=auto;html=1;entryX=0.5;entryY=0;entryDx=0;entryDy=0;" parent="WIyWlLk6GJQsqaUBKTNV-1" source="xwYpTstkqBrpEJgK2ljI-35" target="xwYpTstkqBrpEJgK2ljI-46" edge="1">
          <mxGeometry relative="1" as="geometry">
            <Array as="points" />
          </mxGeometry>
        </mxCell>
        <mxCell id="xwYpTstkqBrpEJgK2ljI-35" value="중급" style="rounded=1;whiteSpace=wrap;html=1;fontSize=12;glass=0;strokeWidth=1;shadow=0;" parent="WIyWlLk6GJQsqaUBKTNV-1" vertex="1">
          <mxGeometry x="-860.08" y="650" width="120" height="40" as="geometry" />
        </mxCell>
        <mxCell id="xwYpTstkqBrpEJgK2ljI-37" value="" style="edgeStyle=orthogonalEdgeStyle;rounded=0;orthogonalLoop=1;jettySize=auto;html=1;" parent="WIyWlLk6GJQsqaUBKTNV-1" source="xwYpTstkqBrpEJgK2ljI-38" target="xwYpTstkqBrpEJgK2ljI-44" edge="1">
          <mxGeometry relative="1" as="geometry" />
        </mxCell>
        <mxCell id="xwYpTstkqBrpEJgK2ljI-38" value="초급" style="rounded=1;whiteSpace=wrap;html=1;fontSize=12;glass=0;strokeWidth=1;shadow=0;" parent="WIyWlLk6GJQsqaUBKTNV-1" vertex="1">
          <mxGeometry x="-1020.08" y="650" width="120" height="40" as="geometry" />
        </mxCell>
        <mxCell id="xwYpTstkqBrpEJgK2ljI-39" value="" style="edgeStyle=orthogonalEdgeStyle;rounded=0;orthogonalLoop=1;jettySize=auto;html=1;" parent="WIyWlLk6GJQsqaUBKTNV-1" source="xwYpTstkqBrpEJgK2ljI-40" target="xwYpTstkqBrpEJgK2ljI-48" edge="1">
          <mxGeometry relative="1" as="geometry" />
        </mxCell>
        <mxCell id="xwYpTstkqBrpEJgK2ljI-40" value="고급" style="rounded=1;whiteSpace=wrap;html=1;fontSize=12;glass=0;strokeWidth=1;shadow=0;" parent="WIyWlLk6GJQsqaUBKTNV-1" vertex="1">
          <mxGeometry x="-700.08" y="650" width="120" height="40" as="geometry" />
        </mxCell>
        <mxCell id="xwYpTstkqBrpEJgK2ljI-41" style="edgeStyle=orthogonalEdgeStyle;rounded=0;orthogonalLoop=1;jettySize=auto;html=1;entryX=0.5;entryY=0;entryDx=0;entryDy=0;" parent="WIyWlLk6GJQsqaUBKTNV-1" target="xwYpTstkqBrpEJgK2ljI-40" edge="1">
          <mxGeometry relative="1" as="geometry">
            <mxPoint x="-790.08" y="660" as="targetPoint" />
            <mxPoint x="-800.08" y="620" as="sourcePoint" />
          </mxGeometry>
        </mxCell>
        <mxCell id="xwYpTstkqBrpEJgK2ljI-42" value="" style="edgeStyle=orthogonalEdgeStyle;rounded=0;orthogonalLoop=1;jettySize=auto;html=1;exitX=0.5;exitY=1;exitDx=0;exitDy=0;entryX=0.5;entryY=0;entryDx=0;entryDy=0;" parent="WIyWlLk6GJQsqaUBKTNV-1" source="xwYpTstkqBrpEJgK2ljI-32" target="xwYpTstkqBrpEJgK2ljI-38" edge="1">
          <mxGeometry relative="1" as="geometry">
            <mxPoint x="-790.08" y="610" as="sourcePoint" />
            <mxPoint x="-790.08" y="660" as="targetPoint" />
            <Array as="points">
              <mxPoint x="-800.08" y="620" />
              <mxPoint x="-960.08" y="620" />
            </Array>
          </mxGeometry>
        </mxCell>
        <mxCell id="xwYpTstkqBrpEJgK2ljI-51" style="edgeStyle=orthogonalEdgeStyle;rounded=0;orthogonalLoop=1;jettySize=auto;html=1;exitX=0.5;exitY=1;exitDx=0;exitDy=0;entryX=0;entryY=0.5;entryDx=0;entryDy=0;" parent="WIyWlLk6GJQsqaUBKTNV-1" source="xwYpTstkqBrpEJgK2ljI-44" target="8InrCBRszf_Y2FXRs5-k-15" edge="1">
          <mxGeometry relative="1" as="geometry">
            <Array as="points">
              <mxPoint x="-960" y="800" />
              <mxPoint x="-800" y="800" />
              <mxPoint x="-800" y="850" />
            </Array>
          </mxGeometry>
        </mxCell>
        <mxCell id="xwYpTstkqBrpEJgK2ljI-44" value="난이도 초급 문제 중 랜덤으로 총 3문제 &lt;br&gt;출력" style="rounded=1;whiteSpace=wrap;html=1;fontSize=12;glass=0;strokeWidth=1;shadow=0;" parent="WIyWlLk6GJQsqaUBKTNV-1" vertex="1">
          <mxGeometry x="-1020.08" y="735" width="120" height="45" as="geometry" />
        </mxCell>
        <mxCell id="xwYpTstkqBrpEJgK2ljI-49" style="edgeStyle=orthogonalEdgeStyle;rounded=0;orthogonalLoop=1;jettySize=auto;html=1;" parent="WIyWlLk6GJQsqaUBKTNV-1" source="xwYpTstkqBrpEJgK2ljI-46" target="8InrCBRszf_Y2FXRs5-k-15" edge="1">
          <mxGeometry relative="1" as="geometry">
            <Array as="points">
              <mxPoint x="-800" y="850" />
            </Array>
          </mxGeometry>
        </mxCell>
        <mxCell id="xwYpTstkqBrpEJgK2ljI-46" value="난이도 중급 문제 중 랜덤으로 총 3문제&lt;br style=&quot;border-color: var(--border-color);&quot;&gt;출력" style="rounded=1;whiteSpace=wrap;html=1;fontSize=12;glass=0;strokeWidth=1;shadow=0;" parent="WIyWlLk6GJQsqaUBKTNV-1" vertex="1">
          <mxGeometry x="-860.08" y="735" width="120" height="45" as="geometry" />
        </mxCell>
        <mxCell id="xwYpTstkqBrpEJgK2ljI-50" style="edgeStyle=orthogonalEdgeStyle;rounded=0;orthogonalLoop=1;jettySize=auto;html=1;entryX=0;entryY=0.5;entryDx=0;entryDy=0;" parent="WIyWlLk6GJQsqaUBKTNV-1" source="xwYpTstkqBrpEJgK2ljI-48" target="8InrCBRszf_Y2FXRs5-k-15" edge="1">
          <mxGeometry relative="1" as="geometry">
            <Array as="points">
              <mxPoint x="-640" y="800" />
              <mxPoint x="-800" y="800" />
              <mxPoint x="-800" y="850" />
            </Array>
          </mxGeometry>
        </mxCell>
        <mxCell id="xwYpTstkqBrpEJgK2ljI-48" value="난이도 고급 문제 중 랜덤으로 총 3문제&lt;br style=&quot;border-color: var(--border-color);&quot;&gt;출력" style="rounded=1;whiteSpace=wrap;html=1;fontSize=12;glass=0;strokeWidth=1;shadow=0;" parent="WIyWlLk6GJQsqaUBKTNV-1" vertex="1">
          <mxGeometry x="-700.08" y="735" width="120" height="45" as="geometry" />
        </mxCell>
        <mxCell id="xwYpTstkqBrpEJgK2ljI-58" style="edgeStyle=orthogonalEdgeStyle;rounded=0;orthogonalLoop=1;jettySize=auto;html=1;entryX=0.5;entryY=0;entryDx=0;entryDy=0;" parent="WIyWlLk6GJQsqaUBKTNV-1" source="xwYpTstkqBrpEJgK2ljI-55" target="WIyWlLk6GJQsqaUBKTNV-3" edge="1">
          <mxGeometry relative="1" as="geometry" />
        </mxCell>
        <mxCell id="xwYpTstkqBrpEJgK2ljI-55" value="사용자" style="shape=umlActor;verticalLabelPosition=bottom;verticalAlign=top;html=1;outlineConnect=0;" parent="WIyWlLk6GJQsqaUBKTNV-1" vertex="1">
          <mxGeometry x="-395" y="40" width="30" height="60" as="geometry" />
        </mxCell>
        <mxCell id="PC392WLs6Io8LUc0K1QD-4" value="선택" style="rounded=0;html=1;jettySize=auto;orthogonalLoop=1;fontSize=11;endArrow=block;endFill=0;endSize=8;strokeWidth=1;shadow=0;labelBackgroundColor=none;edgeStyle=orthogonalEdgeStyle;" edge="1" parent="WIyWlLk6GJQsqaUBKTNV-1" source="PC392WLs6Io8LUc0K1QD-6" target="PC392WLs6Io8LUc0K1QD-7">
          <mxGeometry x="0.3333" y="20" relative="1" as="geometry">
            <mxPoint as="offset" />
          </mxGeometry>
        </mxCell>
        <mxCell id="PC392WLs6Io8LUc0K1QD-5" value="텍스트입력" style="edgeStyle=orthogonalEdgeStyle;rounded=0;html=1;jettySize=auto;orthogonalLoop=1;fontSize=11;endArrow=block;endFill=0;endSize=8;strokeWidth=1;shadow=0;labelBackgroundColor=none;" edge="1" parent="WIyWlLk6GJQsqaUBKTNV-1" source="PC392WLs6Io8LUc0K1QD-6" target="PC392WLs6Io8LUc0K1QD-10">
          <mxGeometry y="10" relative="1" as="geometry">
            <mxPoint as="offset" />
          </mxGeometry>
        </mxCell>
        <mxCell id="PC392WLs6Io8LUc0K1QD-6" value="가나다순 정렬" style="rhombus;whiteSpace=wrap;html=1;shadow=0;fontFamily=Helvetica;fontSize=12;align=center;strokeWidth=1;spacing=6;spacingTop=-4;" vertex="1" parent="WIyWlLk6GJQsqaUBKTNV-1">
          <mxGeometry x="370" y="571" width="100" height="80" as="geometry" />
        </mxCell>
        <mxCell id="PC392WLs6Io8LUc0K1QD-7" value="용어에 대한 정보 제공" style="rounded=1;whiteSpace=wrap;html=1;fontSize=12;glass=0;strokeWidth=1;shadow=0;" vertex="1" parent="WIyWlLk6GJQsqaUBKTNV-1">
          <mxGeometry x="360" y="711" width="120" height="40" as="geometry" />
        </mxCell>
        <mxCell id="PC392WLs6Io8LUc0K1QD-8" value="" style="edgeStyle=orthogonalEdgeStyle;rounded=0;orthogonalLoop=1;jettySize=auto;html=1;" edge="1" parent="WIyWlLk6GJQsqaUBKTNV-1" source="PC392WLs6Io8LUc0K1QD-10" target="PC392WLs6Io8LUc0K1QD-12">
          <mxGeometry relative="1" as="geometry" />
        </mxCell>
        <mxCell id="PC392WLs6Io8LUc0K1QD-9" value="" style="edgeStyle=orthogonalEdgeStyle;rounded=0;orthogonalLoop=1;jettySize=auto;html=1;" edge="1" parent="WIyWlLk6GJQsqaUBKTNV-1" source="PC392WLs6Io8LUc0K1QD-10" target="PC392WLs6Io8LUc0K1QD-14">
          <mxGeometry relative="1" as="geometry" />
        </mxCell>
        <mxCell id="PC392WLs6Io8LUc0K1QD-10" value="데이터베이스 확인" style="rounded=1;whiteSpace=wrap;html=1;fontSize=12;glass=0;strokeWidth=1;shadow=0;" vertex="1" parent="WIyWlLk6GJQsqaUBKTNV-1">
          <mxGeometry x="554" y="591" width="120" height="40" as="geometry" />
        </mxCell>
        <mxCell id="PC392WLs6Io8LUc0K1QD-11" value="" style="edgeStyle=orthogonalEdgeStyle;rounded=0;orthogonalLoop=1;jettySize=auto;html=1;" edge="1" parent="WIyWlLk6GJQsqaUBKTNV-1" source="PC392WLs6Io8LUc0K1QD-12" target="PC392WLs6Io8LUc0K1QD-16">
          <mxGeometry relative="1" as="geometry" />
        </mxCell>
        <mxCell id="PC392WLs6Io8LUc0K1QD-12" value="데이터 있음" style="rounded=1;whiteSpace=wrap;html=1;fontSize=12;glass=0;strokeWidth=1;shadow=0;" vertex="1" parent="WIyWlLk6GJQsqaUBKTNV-1">
          <mxGeometry x="554" y="651" width="120" height="40" as="geometry" />
        </mxCell>
        <mxCell id="PC392WLs6Io8LUc0K1QD-13" value="" style="edgeStyle=orthogonalEdgeStyle;rounded=0;orthogonalLoop=1;jettySize=auto;html=1;" edge="1" parent="WIyWlLk6GJQsqaUBKTNV-1" source="PC392WLs6Io8LUc0K1QD-14" target="PC392WLs6Io8LUc0K1QD-17">
          <mxGeometry relative="1" as="geometry" />
        </mxCell>
        <mxCell id="PC392WLs6Io8LUc0K1QD-14" value="데이터 없음" style="rounded=1;whiteSpace=wrap;html=1;fontSize=12;glass=0;strokeWidth=1;shadow=0;" vertex="1" parent="WIyWlLk6GJQsqaUBKTNV-1">
          <mxGeometry x="754" y="591" width="120" height="40" as="geometry" />
        </mxCell>
        <mxCell id="PC392WLs6Io8LUc0K1QD-15" value="" style="edgeStyle=orthogonalEdgeStyle;rounded=0;orthogonalLoop=1;jettySize=auto;html=1;" edge="1" parent="WIyWlLk6GJQsqaUBKTNV-1" source="PC392WLs6Io8LUc0K1QD-16" target="PC392WLs6Io8LUc0K1QD-18">
          <mxGeometry relative="1" as="geometry" />
        </mxCell>
        <mxCell id="PC392WLs6Io8LUc0K1QD-16" value="용어에 대한 정보 제공" style="rounded=1;whiteSpace=wrap;html=1;fontSize=12;glass=0;strokeWidth=1;shadow=0;" vertex="1" parent="WIyWlLk6GJQsqaUBKTNV-1">
          <mxGeometry x="549" y="711" width="130" height="40" as="geometry" />
        </mxCell>
        <mxCell id="PC392WLs6Io8LUc0K1QD-17" value="해당 텍스트에&amp;nbsp;&lt;br&gt;대한 네이버 어학사전 링크" style="rounded=1;whiteSpace=wrap;html=1;fontSize=12;glass=0;strokeWidth=1;shadow=0;" vertex="1" parent="WIyWlLk6GJQsqaUBKTNV-1">
          <mxGeometry x="731" y="691" width="166" height="60" as="geometry" />
        </mxCell>
        <mxCell id="PC392WLs6Io8LUc0K1QD-36" style="edgeStyle=orthogonalEdgeStyle;rounded=0;orthogonalLoop=1;jettySize=auto;html=1;exitX=0.5;exitY=1;exitDx=0;exitDy=0;entryX=0.75;entryY=1;entryDx=0;entryDy=0;" edge="1" parent="WIyWlLk6GJQsqaUBKTNV-1" source="PC392WLs6Io8LUc0K1QD-18" target="8InrCBRszf_Y2FXRs5-k-15">
          <mxGeometry relative="1" as="geometry" />
        </mxCell>
        <mxCell id="PC392WLs6Io8LUc0K1QD-37" value="아니요" style="edgeLabel;html=1;align=center;verticalAlign=middle;resizable=0;points=[];" vertex="1" connectable="0" parent="PC392WLs6Io8LUc0K1QD-36">
          <mxGeometry x="-0.4016" y="3" relative="1" as="geometry">
            <mxPoint as="offset" />
          </mxGeometry>
        </mxCell>
        <mxCell id="PC392WLs6Io8LUc0K1QD-18" value="추가 설명 필요한지 &lt;br&gt;여부 확인" style="rounded=1;whiteSpace=wrap;html=1;" vertex="1" parent="WIyWlLk6GJQsqaUBKTNV-1">
          <mxGeometry x="554" y="806" width="120" height="60" as="geometry" />
        </mxCell>
        <mxCell id="PC392WLs6Io8LUc0K1QD-19" style="edgeStyle=orthogonalEdgeStyle;rounded=0;orthogonalLoop=1;jettySize=auto;html=1;entryX=1.008;entryY=0.617;entryDx=0;entryDy=0;entryPerimeter=0;" edge="1" parent="WIyWlLk6GJQsqaUBKTNV-1" source="PC392WLs6Io8LUc0K1QD-17" target="PC392WLs6Io8LUc0K1QD-18">
          <mxGeometry relative="1" as="geometry">
            <Array as="points">
              <mxPoint x="810" y="843" />
            </Array>
          </mxGeometry>
        </mxCell>
        <mxCell id="PC392WLs6Io8LUc0K1QD-20" style="edgeStyle=orthogonalEdgeStyle;rounded=0;orthogonalLoop=1;jettySize=auto;html=1;entryX=-0.008;entryY=0.633;entryDx=0;entryDy=0;entryPerimeter=0;" edge="1" parent="WIyWlLk6GJQsqaUBKTNV-1" source="PC392WLs6Io8LUc0K1QD-7" target="PC392WLs6Io8LUc0K1QD-18">
          <mxGeometry relative="1" as="geometry">
            <Array as="points">
              <mxPoint x="420" y="844" />
            </Array>
          </mxGeometry>
        </mxCell>
        <mxCell id="PC392WLs6Io8LUc0K1QD-38" style="edgeStyle=orthogonalEdgeStyle;rounded=0;orthogonalLoop=1;jettySize=auto;html=1;exitX=0;exitY=0.5;exitDx=0;exitDy=0;entryX=0.75;entryY=1;entryDx=0;entryDy=0;" edge="1" parent="WIyWlLk6GJQsqaUBKTNV-1" source="PC392WLs6Io8LUc0K1QD-22" target="8InrCBRszf_Y2FXRs5-k-15">
          <mxGeometry relative="1" as="geometry" />
        </mxCell>
        <mxCell id="PC392WLs6Io8LUc0K1QD-22" value="해당 내용에 대한 네이버 검색 링크 안내" style="rounded=1;whiteSpace=wrap;html=1;" vertex="1" parent="WIyWlLk6GJQsqaUBKTNV-1">
          <mxGeometry x="700" y="941" width="136" height="40" as="geometry" />
        </mxCell>
        <mxCell id="PC392WLs6Io8LUc0K1QD-23" style="edgeStyle=orthogonalEdgeStyle;rounded=0;orthogonalLoop=1;jettySize=auto;html=1;exitX=1;exitY=1;exitDx=0;exitDy=0;" edge="1" parent="WIyWlLk6GJQsqaUBKTNV-1" source="PC392WLs6Io8LUc0K1QD-18">
          <mxGeometry relative="1" as="geometry">
            <mxPoint x="760" y="941" as="targetPoint" />
            <Array as="points">
              <mxPoint x="674" y="881" />
              <mxPoint x="760" y="881" />
            </Array>
          </mxGeometry>
        </mxCell>
        <mxCell id="PC392WLs6Io8LUc0K1QD-24" value="예" style="edgeLabel;html=1;align=center;verticalAlign=middle;resizable=0;points=[];" vertex="1" connectable="0" parent="PC392WLs6Io8LUc0K1QD-23">
          <mxGeometry x="-0.1304" y="-1" relative="1" as="geometry">
            <mxPoint as="offset" />
          </mxGeometry>
        </mxCell>
        <mxCell id="PC392WLs6Io8LUc0K1QD-33" style="edgeStyle=orthogonalEdgeStyle;rounded=0;orthogonalLoop=1;jettySize=auto;html=1;exitX=0.5;exitY=1;exitDx=0;exitDy=0;entryX=0.5;entryY=0;entryDx=0;entryDy=0;" edge="1" parent="WIyWlLk6GJQsqaUBKTNV-1" source="PC392WLs6Io8LUc0K1QD-32" target="PC392WLs6Io8LUc0K1QD-6">
          <mxGeometry relative="1" as="geometry" />
        </mxCell>
        <mxCell id="PC392WLs6Io8LUc0K1QD-34" value="예" style="edgeLabel;html=1;align=center;verticalAlign=middle;resizable=0;points=[];" vertex="1" connectable="0" parent="PC392WLs6Io8LUc0K1QD-33">
          <mxGeometry x="-0.3589" y="1" relative="1" as="geometry">
            <mxPoint as="offset" />
          </mxGeometry>
        </mxCell>
        <mxCell id="PC392WLs6Io8LUc0K1QD-32" value="부동산 용어 찾기" style="rounded=0;whiteSpace=wrap;html=1;" vertex="1" parent="WIyWlLk6GJQsqaUBKTNV-1">
          <mxGeometry x="360" y="470" width="120" height="60" as="geometry" />
        </mxCell>
      </root>
    </mxGraphModel>
  </diagram>
</mxfile>
